# xmcd CD database file
#
# Track frame offsets:
#	150
#	18760
#	41200
#	60667
#	79707
#	100540
#	115547
#	133885
#	152832
#	171785
#	190655
#	210262
#	230202
#	245045
#
# Disc length: 3503 seconds
#
# Revision: 0
# Processed by: cddbd v1.5.1PL0 Copyright (c) Steve Scherf et al.
# Submitted via: CDex 1.51
#
DISCID=b20dad0e
DTITLE=落合博満 - ベストセレクション
DYEAR=1998
DGENRE=Blues
TTITLE0=霧の別れ
TTITLE1=落涙
TTITLE2=縁歌酒
TTITLE3=めぐり逢い
TTITLE4=涙 渇くまで
TTITLE5=旅路のひと
TTITLE6=そんなふたりのラブソング
TTITLE7=サムライ街道
TTITLE8=きずな橋
TTITLE9=男のララバイ
TTITLE10=恋の広小路
TTITLE11=夜明川
TTITLE12=抱かれて乾杯
TTITLE13=息子へ
EXTD=YEAR: 1998
EXTT0=
EXTT1=
EXTT2=
EXTT3=
EXTT4=
EXTT5=
EXTT6=
EXTT7=
EXTT8=
EXTT9=
EXTT10=
EXTT11=
EXTT12=
EXTT13=
PLAYORDER=
